<?xml version="1.0" encoding="UTF-8"?>
<svg width="56px" height="85px" viewBox="0 0 56 85" version="1.1" xmlns="http://www.w3.org/2000/svg" xmlns:xlink="http://www.w3.org/1999/xlink">
    <!-- Generator: Sketch 46.2 (44496) - http://www.bohemiancoding.com/sketch -->
    <title>Combined Shape</title>
    <desc>Created with Sketch.</desc>
    <defs></defs>
    <g id="Page-1" stroke="none" stroke-width="1" fill="none" fill-rule="evenodd">
        <g id="Desktop-Copy-2" transform="translate(-425.000000, -884.000000)" fill="#FFFFFF">
            <g id="Info" transform="translate(0.000000, 767.000000)">
                <g id="Details" transform="translate(425.000000, 117.000000)">
                    <g id="Where">
                        <g id="LocationMarker">
                            <path d="M27.6516285,84.4884449 C9.21720951,56.7782825 0,37.832677 0,27.6516285 C0,12.3800558 12.3800558,0 27.6516285,0 C42.9232013,0 55.303257,12.3800558 55.303257,27.6516285 C55.303257,37.832677 46.0860475,56.7782825 27.6516285,84.4884449 Z M28.1048387,40.6174771 C34.5407376,40.6174771 39.7580645,35.4001502 39.7580645,28.9642513 C39.7580645,22.5283524 34.5407376,17.3110255 28.1048387,17.3110255 C21.6689398,17.3110255 16.4516129,22.5283524 16.4516129,28.9642513 C16.4516129,35.4001502 21.6689398,40.6174771 28.1048387,40.6174771 Z" id="Combined-Shape"></path>
                        </g>
                    </g>
                </g>
            </g>
        </g>
    </g>
</svg>